<svg xmlns="http://www.w3.org/2000/svg" xmlns:xlink="http://www.w3.org/1999/xlink" viewBox="0 0 674 439"><defs><linearGradient id="Degradado_sin_nombre_5" x1="208.33" y1="8.92" x2="196.83" y2="-9.3" gradientTransform="translate(11.38 270.74) rotate(-38.45)" gradientUnits="userSpaceOnUse"><stop offset="0" stop-color="#5874b5"/><stop offset="1" stop-color="#a6cfed"/></linearGradient><linearGradient id="Degradado_sin_nombre_5-2" x1="187.86" y1="-6.94" x2="214.35" y2="-6.94" xlink:href="#Degradado_sin_nombre_5"/><linearGradient id="Degradado_sin_nombre_5-3" x1="215.59" y1="0.16" x2="209.7" y2="-25.22" xlink:href="#Degradado_sin_nombre_5"/><linearGradient id="Degradado_sin_nombre_5-4" x1="205.99" y1="-23.31" x2="228.14" y2="-22.19" xlink:href="#Degradado_sin_nombre_5"/><linearGradient id="Degradado_sin_nombre_5-5" x1="203.45" y1="-16.47" x2="202.81" y2="-21.25" xlink:href="#Degradado_sin_nombre_5"/><linearGradient id="Degradado_sin_nombre_5-6" x1="375.66" y1="308.4" x2="375.03" y2="303.61" gradientTransform="matrix(0.2, 0.78, -0.97, 0.25, 386.68, -250.47)" xlink:href="#Degradado_sin_nombre_5"/><linearGradient id="Degradado_sin_nombre_5-7" x1="434.34" y1="367.16" x2="433.11" y2="357.79" gradientTransform="translate(538.28 -306.03) rotate(89.93)" xlink:href="#Degradado_sin_nombre_5"/><linearGradient id="Degradado_sin_nombre_5-8" x1="328.32" y1="359.25" x2="327.08" y2="349.87" gradientTransform="matrix(0.15, 0.53, -0.96, 0.27, 466.15, -127.12)" xlink:href="#Degradado_sin_nombre_5"/><linearGradient id="Degradado_sin_nombre_4" x1="214.57" y1="-37.17" x2="209.7" y2="-7.84" gradientTransform="translate(11.38 270.74) rotate(-38.45)" gradientUnits="userSpaceOnUse"><stop offset="0" stop-color="#fff"/><stop offset="0.16" stop-color="#fff"/><stop offset="1" stop-color="#a6cfed" stop-opacity="0"/></linearGradient><linearGradient id="Degradado_sin_nombre_4-2" x1="201.59" y1="-12.12" x2="200.28" y2="-4.22" xlink:href="#Degradado_sin_nombre_4"/><linearGradient id="Degradado_sin_nombre_4-3" x1="214.23" y1="-5.51" x2="213.56" y2="-1.5" xlink:href="#Degradado_sin_nombre_4"/><linearGradient id="Degradado_sin_nombre_32" x1="460.89" y1="216.29" x2="559.68" y2="216.29" gradientUnits="userSpaceOnUse"><stop offset="0" stop-color="#fff"/><stop offset="0.16" stop-color="#f7f7f7"/><stop offset="1" stop-color="#cfd1d2" stop-opacity="0"/></linearGradient><linearGradient id="Degradado_sin_nombre_150" x1="522.47" y1="197.8" x2="460.84" y2="167.88" gradientUnits="userSpaceOnUse"><stop offset="0" stop-color="#6d00e3"/><stop offset="1" stop-color="#eebf6d"/></linearGradient><linearGradient id="Degradado_sin_nombre_150-2" x1="491.44" y1="185.46" x2="521.04" y2="214.78" xlink:href="#Degradado_sin_nombre_150"/><linearGradient id="Degradado_sin_nombre_150-3" x1="505.46" y1="208.7" x2="529.02" y2="245.97" xlink:href="#Degradado_sin_nombre_150"/><linearGradient id="Degradado_sin_nombre_150-4" x1="504.29" y1="235.56" x2="518.1" y2="272.39" xlink:href="#Degradado_sin_nombre_150"/><linearGradient id="Degradado_sin_nombre_150-5" x1="488.27" y1="251.68" x2="522.8" y2="231.95" xlink:href="#Degradado_sin_nombre_150"/><linearGradient id="Degradado_sin_nombre_32-2" x1="70.65" y1="195.08" x2="146.32" y2="195.08" xlink:href="#Degradado_sin_nombre_32"/><linearGradient id="Degradado_sin_nombre_56" x1="117.33" y1="181.72" x2="72.21" y2="159.81" gradientUnits="userSpaceOnUse"><stop offset="0" stop-color="#9dffd6"/><stop offset="1" stop-color="#1b2f7c"/></linearGradient><linearGradient id="Degradado_sin_nombre_56-2" x1="123.85" y1="190.06" x2="92.96" y2="175.65" xlink:href="#Degradado_sin_nombre_56"/><linearGradient id="Degradado_sin_nombre_56-3" x1="97.01" y1="214.22" x2="117.04" y2="183.51" xlink:href="#Degradado_sin_nombre_56"/><linearGradient id="Degradado_sin_nombre_56-4" x1="104.02" y1="209.36" x2="114.13" y2="236.31" xlink:href="#Degradado_sin_nombre_56"/><linearGradient id="Degradado_sin_nombre_56-5" x1="123.32" y1="219.44" x2="98.43" y2="199.22" xlink:href="#Degradado_sin_nombre_56"/><linearGradient id="Degradado_sin_nombre_32-3" x1="141.44" y1="277.68" x2="254.72" y2="277.68" xlink:href="#Degradado_sin_nombre_32"/><linearGradient id="Degradado_sin_nombre_73" x1="190.77" y1="292.62" x2="135.17" y2="267.06" gradientUnits="userSpaceOnUse"><stop offset="0" stop-color="#e48829"/><stop offset="1" stop-color="#6c1203"/></linearGradient><linearGradient id="Degradado_sin_nombre_73-2" x1="183.95" y1="304.45" x2="200.29" y2="255.18" xlink:href="#Degradado_sin_nombre_73"/><linearGradient id="Degradado_sin_nombre_73-3" x1="211.12" y1="342.92" x2="200.85" y2="315.52" xlink:href="#Degradado_sin_nombre_73"/><linearGradient id="Degradado_sin_nombre_73-4" x1="199.33" y1="324.32" x2="214.87" y2="256.33" xlink:href="#Degradado_sin_nombre_73"/><linearGradient id="Degradado_sin_nombre_73-5" x1="203.8" y1="219.22" x2="192.47" y2="273.5" xlink:href="#Degradado_sin_nombre_73"/><linearGradient id="Degradado_sin_nombre_84" x1="593.23" y1="275" x2="565.43" y2="262.22" gradientUnits="userSpaceOnUse"><stop offset="0" stop-color="#5c8829"/><stop offset="1" stop-color="#c8ff49"/></linearGradient><linearGradient id="Degradado_sin_nombre_84-2" x1="589.82" y1="280.91" x2="597.98" y2="256.28" xlink:href="#Degradado_sin_nombre_84"/><linearGradient id="Degradado_sin_nombre_84-3" x1="603.4" y1="300.15" x2="598.27" y2="286.45" xlink:href="#Degradado_sin_nombre_84"/><linearGradient id="Degradado_sin_nombre_84-4" x1="597.51" y1="290.85" x2="605.28" y2="256.85" xlink:href="#Degradado_sin_nombre_84"/><linearGradient id="Degradado_sin_nombre_84-5" x1="599.74" y1="238.3" x2="594.08" y2="265.44" xlink:href="#Degradado_sin_nombre_84"/><linearGradient id="Degradado_sin_nombre_32-4" x1="337.88" y1="343.23" x2="337.88" y2="153.75" xlink:href="#Degradado_sin_nombre_32"/><linearGradient id="Degradado_sin_nombre_5-9" x1="370.91" y1="409.11" x2="354.45" y2="383.01" xlink:href="#Degradado_sin_nombre_5"/><linearGradient id="Degradado_sin_nombre_5-10" x1="341.59" y1="386.39" x2="379.54" y2="386.39" xlink:href="#Degradado_sin_nombre_5"/><linearGradient id="Degradado_sin_nombre_5-11" x1="381.31" y1="396.55" x2="372.88" y2="360.21" xlink:href="#Degradado_sin_nombre_5"/><linearGradient id="Degradado_sin_nombre_5-12" x1="367.57" y1="362.94" x2="399.29" y2="364.55" xlink:href="#Degradado_sin_nombre_5"/><linearGradient id="Degradado_sin_nombre_5-13" x1="363.92" y1="372.74" x2="363.01" y2="365.89" xlink:href="#Degradado_sin_nombre_5"/><linearGradient id="Degradado_sin_nombre_5-14" x1="729.48" y1="0.4" x2="728.58" y2="-6.45" gradientTransform="matrix(0.2, 0.78, -0.97, 0.25, 386.68, -250.47)" xlink:href="#Degradado_sin_nombre_5"/><linearGradient id="Degradado_sin_nombre_5-15" x1="638.68" y1="-5.1" x2="636.91" y2="-18.53" gradientTransform="translate(538.28 -306.03) rotate(89.93)" xlink:href="#Degradado_sin_nombre_5"/><linearGradient id="Degradado_sin_nombre_5-16" x1="876.56" y1="58.79" x2="874.79" y2="45.36" gradientTransform="matrix(0.15, 0.53, -0.96, 0.27, 466.15, -127.12)" xlink:href="#Degradado_sin_nombre_5"/><linearGradient id="Degradado_sin_nombre_4-4" x1="379.85" y1="343.09" x2="372.87" y2="385.11" xlink:href="#Degradado_sin_nombre_4"/><linearGradient id="Degradado_sin_nombre_4-5" x1="361.27" y1="378.97" x2="359.39" y2="390.29" xlink:href="#Degradado_sin_nombre_4"/><linearGradient id="Degradado_sin_nombre_4-6" x1="379.36" y1="388.44" x2="378.41" y2="394.18" xlink:href="#Degradado_sin_nombre_4"/><linearGradient id="Degradado_sin_nombre_32-5" x1="565.86" y1="126.69" x2="607.39" y2="126.69" xlink:href="#Degradado_sin_nombre_32"/><linearGradient id="Degradado_sin_nombre_92" x1="584.57" y1="131.37" x2="568.4" y2="123.93" gradientUnits="userSpaceOnUse"><stop offset="0" stop-color="#2500ce"/><stop offset="1" stop-color="#8200e3"/></linearGradient><linearGradient id="Degradado_sin_nombre_92-2" x1="582.59" y1="134.81" x2="587.34" y2="120.48" xlink:href="#Degradado_sin_nombre_92"/><linearGradient id="Degradado_sin_nombre_92-3" x1="590.49" y1="145.99" x2="587.5" y2="138.02" xlink:href="#Degradado_sin_nombre_92"/><linearGradient id="Degradado_sin_nombre_92-4" x1="587.06" y1="140.58" x2="591.58" y2="120.81" xlink:href="#Degradado_sin_nombre_92"/><linearGradient id="Degradado_sin_nombre_92-5" x1="588.36" y1="110.02" x2="585.06" y2="125.81" xlink:href="#Degradado_sin_nombre_92"/><linearGradient id="Degradado_sin_nombre_84-6" x1="89.96" y1="358.57" x2="62.16" y2="345.79" xlink:href="#Degradado_sin_nombre_84"/><linearGradient id="Degradado_sin_nombre_84-7" x1="86.55" y1="364.48" x2="94.72" y2="339.85" xlink:href="#Degradado_sin_nombre_84"/><linearGradient id="Degradado_sin_nombre_84-8" x1="100.14" y1="383.72" x2="95" y2="370.02" xlink:href="#Degradado_sin_nombre_84"/><linearGradient id="Degradado_sin_nombre_84-9" x1="94.24" y1="374.42" x2="102.01" y2="340.42" xlink:href="#Degradado_sin_nombre_84"/><linearGradient id="Degradado_sin_nombre_84-10" x1="96.47" y1="321.87" x2="90.81" y2="349.01" xlink:href="#Degradado_sin_nombre_84"/></defs><title>Asset 99</title><g style="isolation:isolate"><g id="Layer_2" data-name="Layer 2"><g id="OBJECTS"><polygon points="633.31 21.75 16.07 21.75 16.07 348.57 16.07 403.06 659.93 403.06 659.93 21.75 633.31 21.75" fill="#845ec2"/><path d="M608.45,294c-23.18-9.15-47.21-15.25-72.11-9.91-47.21,11.44-58.38,57.2-77.26,92.28-5.74,10.65-13.69,20.17-24.24,26.69H659.93v-109C642.37,299.35,624,300.36,608.45,294Z" fill="#7e62b2"/><path d="M508,123.94c-72.11-8.39-139.93-28.22-212.9-21.36C223,108.69,180.93,166.65,156,223.08c-11.16,24.4-25.75,51.86-55.8,61.77a186.76,186.76,0,0,1-84.16,8.95V403.06H434.84c10.55-6.52,18.5-16,24.24-26.69,18.88-35.08,30.05-80.84,77.26-92.28,24.9-5.34,48.93.76,72.11,9.91,15.51,6.36,33.92,5.35,51.48.06V91.93C617,125.47,562.08,130.8,508,123.94Z" fill="#7252af"/><path d="M659.93,91.93V21.75H16.07V293.8a186.76,186.76,0,0,0,84.16-8.95c30.05-9.91,44.64-37.37,55.8-61.77,24.9-56.43,67-114.39,139.08-120.5,73-6.86,140.79,13,212.9,21.36C562.08,130.8,617,125.47,659.93,91.93Z" fill="#845ec2"/><path d="M161.7,146.21a18.21,18.21,0,0,0,7.45,1.46c.48,0,1,0,1.45-.08a18.06,18.06,0,0,0,9.49-3.84s0,0,0,0C173.69,142.26,165.65,140.82,161.7,146.21Z" fill="url(#Degradado_sin_nombre_5)"/><path d="M185.23,130.12c-7.58,6-16.69,2-25.29,1.29a10.78,10.78,0,0,0-8.39,3.6,18,18,0,0,0,1.42,3.3,18.86,18.86,0,0,0,1.52,2.32l.15.2a18,18,0,0,0,7.06,5.38c4-5.39,12-4,18.43-2.5a18.08,18.08,0,0,0,6.76-15.44A4.73,4.73,0,0,1,185.23,130.12Z" fill="url(#Degradado_sin_nombre_5-2)"/><path d="M182.84,118.09c-.31-.38-.63-.75-1-1.1-6.85,5.08-16.3,2.75-24.13,4.89a16,16,0,0,0-6.66,4.08,18,18,0,0,0,.47,9,10.78,10.78,0,0,1,8.39-3.6c8.6.69,17.71,4.73,25.29-1.29a4.73,4.73,0,0,0,1.66-1.85v-.13a18.06,18.06,0,0,0-3.88-9.85C183,118.22,182.9,118.16,182.84,118.09Z" fill="url(#Degradado_sin_nombre_5-3)"/><path d="M157.74,121.88c7.83-2.14,17.28.19,24.13-4.89a18.1,18.1,0,0,0-30.79,9A16,16,0,0,1,157.74,121.88Z" fill="url(#Degradado_sin_nombre_5-4)"/><path d="M161.66,127.42a3.69,3.69,0,1,1-5.18-.6A3.69,3.69,0,0,1,161.66,127.42Z" fill="url(#Degradado_sin_nombre_5-5)"/><path d="M160.17,127.9a2.65,2.65,0,1,1-3.72-.42A2.65,2.65,0,0,1,160.17,127.9Z" fill="#202f2f"/><path d="M164.79,119.14c-2,.5-3.9-.38-4.31-2s.88-3.27,2.85-3.77,3.91.37,4.31,2S166.76,118.63,164.79,119.14Z" fill="url(#Degradado_sin_nombre_5-6)"/><path d="M164.34,117.76a2.18,2.18,0,1,1,2-2.71A2.43,2.43,0,0,1,164.34,117.76Z" fill="#202f2f"/><path d="M176.21,135.38a7.24,7.24,0,1,1,7.22-7.24A7.23,7.23,0,0,1,176.21,135.38Z" fill="url(#Degradado_sin_nombre_5-7)"/><path d="M177.27,132.5a5.2,5.2,0,1,1,5.19-5.21A5.2,5.2,0,0,1,177.27,132.5Z" fill="#202f2f"/><path d="M175.17,147.94c-3.85,1.09-7.45.23-8-1.9s2-4.74,5.87-5.82,7.45-.23,8,1.9S179,146.86,175.17,147.94Z" fill="url(#Degradado_sin_nombre_5-8)"/><path d="M175.05,147.5c-2.77.78-5.36.17-5.79-1.36s1.46-3.41,4.22-4.19,5.36-.17,5.79,1.37S177.81,146.72,175.05,147.5Z" fill="#202f2f"/><path d="M179.38,116.51c4.81,6,3,15.52-4.12,21.15s-16.73,5.28-21.54-.78-3-15.52,4.12-21.15S174.57,110.45,179.38,116.51Z" fill="url(#Degradado_sin_nombre_4)" style="mix-blend-mode:overlay"/><path d="M167.45,138.52a3.79,3.79,0,1,1-5.33-.61A3.8,3.8,0,0,1,167.45,138.52Z" fill="url(#Degradado_sin_nombre_4-2)"/><path d="M175.61,136.94a1.92,1.92,0,1,0,.31-2.7A1.92,1.92,0,0,0,175.61,136.94Z" fill="url(#Degradado_sin_nombre_4-3)"/><path d="M149.1,104.48a.49.49,0,1,0,0-1,.49.49,0,1,0,0,1Z" fill="#fff"/><path d="M162.25,167a.49.49,0,1,0,0-1,.49.49,0,1,0,0,1Z" fill="#fff"/><path d="M182.53,166a.49.49,0,1,0,0-1,.49.49,0,1,0,0,1Z" fill="#fff"/><path d="M204.45,139.91a.49.49,0,1,0,0-1,.49.49,0,1,0,0,1Z" fill="#fff"/><path d="M219.79,196.72a.49.49,0,1,0,0-1,.49.49,0,1,0,0,1Z" fill="#fff"/><path d="M192.39,249.87a.49.49,0,1,0,0-1,.49.49,0,1,0,0,1Z" fill="#fff"/><path d="M231.3,242.58a.49.49,0,1,0,0-1,.49.49,0,1,0,0,1Z" fill="#fff"/><path d="M274,277.49a.49.49,0,1,0,0-1,.49.49,0,1,0,0,1Z" fill="#fff"/><path d="M205.54,295.73a.49.49,0,1,0,0-1,.49.49,0,1,0,0,1Z" fill="#fff"/><path d="M265.28,257.17a.49.49,0,1,0,0-1,.49.49,0,1,0,0,1Z" fill="#fff"/><path d="M209.93,193.59a.49.49,0,1,0,0-1,.49.49,0,1,0,0,1Z" fill="#fff"/><path d="M81.7,217a.49.49,0,1,0,0-1,.49.49,0,1,0,0,1Z" fill="#fff"/><path d="M144.72,218.6a.49.49,0,1,0,0-1,.49.49,0,1,0,0,1Z" fill="#fff"/><path d="M156.22,274.36a.49.49,0,1,0,0-1,.49.49,0,1,0,0,1Z" fill="#fff"/><path d="M87.18,236.84a.49.49,0,1,0,0-1,.49.49,0,1,0,0,1Z" fill="#fff"/><path d="M76.22,148.25a.49.49,0,1,0,0-1,.49.49,0,1,0,0,1Z" fill="#fff"/><path d="M45.53,141.48a.49.49,0,1,0,0-1,.49.49,0,1,0,0,1Z" fill="#fff"/><path d="M97,127.41a.49.49,0,1,0,0-1,.49.49,0,1,0,0,1Z" fill="#fff"/><path d="M42.79,93.53a.49.49,0,1,0,0-1,.49.49,0,1,0,0,1Z" fill="#fff"/><path d="M186.91,60.7a.49.49,0,1,0,0-1,.49.49,0,1,0,0,1Z" fill="#fff"/><path d="M235.68,109.69a.49.49,0,1,0,0-1,.49.49,0,1,0,0,1Z" fill="#fff"/><path d="M235.68,53.93a.49.49,0,1,0,0-1,.49.49,0,1,0,0,1Z" fill="#fff"/><path d="M266.37,90.93a.49.49,0,1,0,0-1,.49.49,0,1,0,0,1Z" fill="#fff"/><path d="M190.75,74.25a.49.49,0,1,0,0-1,.49.49,0,1,0,0,1Z" fill="#fff"/><path d="M176.5,96.66a.49.49,0,1,0,0-1,.49.49,0,1,0,0,1Z" fill="#fff"/><path d="M212.67,86.24a.49.49,0,1,0,0-1,.49.49,0,1,0,0,1Z" fill="#fff"/><path d="M183.62,125.32a.49.49,0,1,0,0-1,.49.49,0,1,0,0,1Z" fill="#fff"/><path d="M333.78,124.28a.49.49,0,1,0,0-1,.49.49,0,1,0,0,1Z" fill="#fff"/><path d="M168.83,44a.49.49,0,1,0,0-1,.49.49,0,1,0,0,1Z" fill="#fff"/><path d="M297.06,40.9a.49.49,0,1,0,0-1,.49.49,0,1,0,0,1Z" fill="#fff"/><path d="M352.41,106a.49.49,0,1,0,0-1,.49.49,0,1,0,0,1Z" fill="#fff"/><path d="M326.1,85.2a.49.49,0,1,0,0-1,.49.49,0,1,0,0,1Z" fill="#fff"/><path d="M289.94,110.21a.49.49,0,1,0,0-1,.49.49,0,1,0,0,1Z" fill="#fff"/><path d="M374.88,118.55a.49.49,0,1,0,0-1,.49.49,0,1,0,0,1Z" fill="#fff"/><path d="M443.38,156.07a.49.49,0,1,0,0-1,.49.49,0,1,0,0,1Z" fill="#fff"/><path d="M465.3,223.29a.49.49,0,1,0,0-1,.49.49,0,1,0,0,1Z" fill="#fff"/><path d="M422,193.59a.49.49,0,1,0,0-1,.49.49,0,1,0,0,1Z" fill="#fff"/><path d="M447.21,218.6a.49.49,0,1,0,0-1,.49.49,0,1,0,0,1Z" fill="#fff"/><path d="M440.64,241a.49.49,0,1,0,0-1,.49.49,0,1,0,0,1Z" fill="#fff"/><path d="M276.78,142a.49.49,0,1,0,0-1,.49.49,0,1,0,0,1Z" fill="#fff"/><path d="M218.15,159.72a.49.49,0,1,0,0-1,.49.49,0,1,0,0,1Z" fill="#fff"/><path d="M242.26,188.9a.49.49,0,1,0,0-1,.49.49,0,1,0,0,1Z" fill="#fff"/><path d="M283.36,292.6a.49.49,0,1,0,0-1,.49.49,0,1,0,0,1Z" fill="#fff"/><path d="M246.1,300.42a.49.49,0,1,0,0-1,.49.49,0,1,0,0,1Z" fill="#fff"/><path d="M229.11,269.67a.49.49,0,1,0,0-1,.49.49,0,1,0,0,1Z" fill="#fff"/><path d="M311.58,289.48a.49.49,0,1,0,0-1,.49.49,0,1,0,0,1Z" fill="#fff"/><path d="M374.88,296.51a.49.49,0,1,0,0-1,.49.49,0,1,0,0,1Z" fill="#fff"/><path d="M359.26,289.48a.49.49,0,1,0,0-1,.49.49,0,1,0,0,1Z" fill="#fff"/><path d="M353.5,278.53a.49.49,0,1,0,0-1,.49.49,0,1,0,0,1Z" fill="#fff"/><path d="M424.2,259a.49.49,0,1,0,0-1,.49.49,0,1,0,0,1Z" fill="#fff"/><path d="M423.1,278.27a.49.49,0,1,0,0-1,.49.49,0,1,0,0,1Z" fill="#fff"/><path d="M472.15,284.27a.49.49,0,1,0,0-1,.49.49,0,1,0,0,1Z" fill="#fff"/><path d="M469.68,312.67a.49.49,0,1,0,0-1,.49.49,0,1,0,0,1Z" fill="#fff"/><path d="M455.71,312.67a.49.49,0,1,0,0-1,.49.49,0,1,0,0,1Z" fill="#fff"/><path d="M510.78,322.57a.49.49,0,1,0,0-1,.49.49,0,1,0,0,1Z" fill="#fff"/><path d="M497.35,264.2a.49.49,0,1,0,0-1,.49.49,0,1,0,0,1Z" fill="#fff"/><path d="M463.93,256.39a.49.49,0,1,0,0-1,.49.49,0,1,0,0,1Z" fill="#fff"/><path d="M521.47,242.84a.49.49,0,1,0,0-1,.49.49,0,1,0,0,1Z" fill="#fff"/><path d="M479.27,172.22a.49.49,0,1,0,0-1,.49.49,0,1,0,0,1Z" fill="#fff"/><path d="M538.45,194.89a.49.49,0,1,0,0-1,.49.49,0,1,0,0,1Z" fill="#fff"/><path d="M517.08,129.23a.49.49,0,1,0,0-1,.49.49,0,1,0,0,1Z" fill="#fff"/><path d="M445.57,105a.49.49,0,1,0,0-1,.49.49,0,1,0,0,1Z" fill="#fff"/><path d="M388.85,115.94a.49.49,0,1,0,0-1,.49.49,0,1,0,0,1Z" fill="#fff"/><path d="M462.83,130.8a.49.49,0,1,0,0-1,.49.49,0,1,0,0,1Z" fill="#fff"/><path d="M478.45,101.09a.49.49,0,1,0,0-1,.49.49,0,1,0,0,1Z" fill="#fff"/><path d="M400.36,90.93a.49.49,0,1,0,0-1,.49.49,0,1,0,0,1Z" fill="#fff"/><path d="M413.51,119.07a.49.49,0,1,0,0-1,.49.49,0,1,0,0,1Z" fill="#fff"/><path d="M441.46,130a.49.49,0,1,0,0-1,.49.49,0,1,0,0,1Z" fill="#fff"/><path d="M411.87,44a.49.49,0,1,0,0-1,.49.49,0,1,0,0,1Z" fill="#fff"/><path d="M343.64,42.46a.49.49,0,1,0,0-1,.49.49,0,1,0,0,1Z" fill="#fff"/><path d="M362.55,86.24a.49.49,0,1,0,0-1,.49.49,0,1,0,0,1Z" fill="#fff"/><path d="M381.45,39.34a.49.49,0,1,0,0-1,.49.49,0,1,0,0,1Z" fill="#fff"/><path d="M476,37a.49.49,0,1,0,0-1,.49.49,0,1,0,0,1Z" fill="#fff"/><path d="M485.85,67.48a.49.49,0,1,0,0-1,.49.49,0,1,0,0,1Z" fill="#fff"/><path d="M436.53,47.15a.49.49,0,1,0,0-1,.49.49,0,1,0,0,1Z" fill="#fff"/><path d="M502.29,43.25a.49.49,0,1,0,0-1,.49.49,0,1,0,0,1Z" fill="#fff"/><path d="M540.1,60.44a.49.49,0,1,0,0-1,.49.49,0,1,0,0,1Z" fill="#fff"/><path d="M574.62,117.51a.49.49,0,1,0,0-1,.49.49,0,1,0,0,1Z" fill="#fff"/><path d="M630.52,218.34a.49.49,0,1,0,0-1,.49.49,0,1,0,0,1Z" fill="#fff"/><path d="M593.53,266.81a.49.49,0,1,0,0-1,.49.49,0,1,0,0,1Z" fill="#fff"/><path d="M566.4,175.35a.49.49,0,1,0,0-1,.49.49,0,1,0,0,1Z" fill="#fff"/><path d="M619,166.75a.49.49,0,1,0,0-1,.49.49,0,1,0,0,1Z" fill="#fff"/><path d="M589.42,201.15a.49.49,0,1,0,0-1,.49.49,0,1,0,0,1Z" fill="#fff"/><path d="M612.43,137.05a.49.49,0,1,0,0-1,.49.49,0,1,0,0,1Z" fill="#fff"/><path d="M586.13,104.22a.49.49,0,1,0,0-1,.49.49,0,1,0,0,1Z" fill="#fff"/><path d="M516.26,90.15a.49.49,0,1,0,0-1,.49.49,0,1,0,0,1Z" fill="#fff"/><path d="M540.1,125.32a.49.49,0,1,0,0-1,.49.49,0,1,0,0,1Z" fill="#fff"/><path d="M623.12,44a.49.49,0,1,0,0-1,.49.49,0,1,0,0,1Z" fill="#fff"/><path d="M577.91,40.9a.49.49,0,1,0,0-1,.49.49,0,1,0,0,1Z" fill="#fff"/><path d="M637.09,98.75a.49.49,0,1,0,0-1,.49.49,0,1,0,0,1Z" fill="#fff"/><path d="M630.54,355.59a.49.49,0,1,0,0-1,.49.49,0,1,0,0,1Z" fill="#fff"/><path d="M541.77,349.73a.49.49,0,1,0,0-1,.49.49,0,1,0,0,1Z" fill="#fff"/><path d="M556.57,306.35a.49.49,0,1,0,0-1,.49.49,0,1,0,0,1Z" fill="#fff"/><path d="M617,366.15a.49.49,0,1,0,0-1,.49.49,0,1,0,0,1Z" fill="#fff"/><path d="M556.57,365a.49.49,0,1,0,0-1,.49.49,0,1,0,0,1Z" fill="#fff"/><path d="M547.93,297a.49.49,0,1,0,0-1,.49.49,0,1,0,0,1Z" fill="#fff"/><path d="M584.92,341.52a.49.49,0,1,0,0-1,.49.49,0,1,0,0,1Z" fill="#fff"/><path d="M554.1,261.8a.49.49,0,1,0,0-1,.49.49,0,1,0,0,1Z" fill="#fff"/><path d="M624.76,274.62a.49.49,0,1,0,0-1,.49.49,0,1,0,0,1Z" fill="#fff"/><path d="M534.34,377a.49.49,0,1,0,0-1,.49.49,0,1,0,0,1Z" fill="#fff"/><path d="M331.31,402.82a.49.49,0,1,0,0-1,.49.49,0,1,0,0,1Z" fill="#fff"/><path d="M454.61,401.26a.49.49,0,1,0,0-1,.49.49,0,1,0,0,1Z" fill="#fff"/><path d="M411,388.75a.49.49,0,1,0,0-1,.49.49,0,1,0,0,1Z" fill="#fff"/><path d="M209.65,391.1a.49.49,0,1,0,0-1,.49.49,0,1,0,0,1Z" fill="#fff"/><path d="M185.82,361.39a.49.49,0,1,0,0-1,.49.49,0,1,0,0,1Z" fill="#fff"/><path d="M194.86,335.6a.49.49,0,1,0,0-1,.49.49,0,1,0,0,1Z" fill="#fff"/><path d="M148,309a.49.49,0,1,0,0-1,.49.49,0,1,0,0,1Z" fill="#fff"/><path d="M101.15,252a.49.49,0,1,0,0-1,.49.49,0,1,0,0,1Z" fill="#fff"/><path d="M120.88,327a.49.49,0,1,0,0-1,.49.49,0,1,0,0,1Z" fill="#fff"/><path d="M144.72,370a.49.49,0,1,0,0-1,.49.49,0,1,0,0,1Z" fill="#fff"/><path d="M94.21,270a.49.49,0,1,0,0-1,.49.49,0,1,0,0,1Z" fill="#fff"/><path d="M75.12,309.28a.49.49,0,1,0,0-1,.49.49,0,1,0,0,1Z" fill="#fff"/><path d="M53.2,276.45a.49.49,0,1,0,0-1,.49.49,0,1,0,0,1Z" fill="#fff"/><path d="M37.31,335.86a.49.49,0,1,0,0-1,.49.49,0,1,0,0,1Z" fill="#fff"/><path d="M88.27,357.74a.49.49,0,1,0,0-1,.49.49,0,1,0,0,1Z" fill="#fff"/><path d="M76.22,329.08a.49.49,0,1,0,0-1,.49.49,0,1,0,0,1Z" fill="#fff"/><path d="M65.8,368.69a.49.49,0,1,0,0-1,.49.49,0,1,0,0,1Z" fill="#fff"/><path d="M139.78,384.84a.49.49,0,1,0,0-1,.49.49,0,1,0,0,1Z" fill="#fff"/><path d="M53.2,389.53a.49.49,0,1,0,0-1,.49.49,0,1,0,0,1Z" fill="#fff"/><path d="M177.6,395.79a.49.49,0,1,0,0-1,.49.49,0,1,0,0,1Z" fill="#fff"/><path d="M88.82,189.42a.49.49,0,1,0,0-1,.49.49,0,1,0,0,1Z" fill="#fff"/><path d="M125,191.77a.49.49,0,1,0,0-1,.49.49,0,1,0,0,1Z" fill="#fff"/><path d="M541.43,177.8a6.38,6.38,0,0,0-.67-.49c-.18-.16-.37-.32-.57-.47-16.56-12.58-40.36-13.48-57.57-1.59a50.21,50.21,0,0,0-20.49,52.31c4.61,20.17,22.08,35.35,42.46,37.83s41.24-8.66,50.16-27.26C564.65,217.46,559.35,192.26,541.43,177.8Zm4.48,49.28a37.4,37.4,0,0,1-32.73,26.27c-16,1.06-31.41-8.24-37.38-23.25a37.69,37.69,0,0,1,10.63-42.34c13.51-11.55,32.81-10.95,46.8-.81C545,196.78,550.41,212.09,545.91,227.08Z" fill="url(#Degradado_sin_nombre_32)" style="mix-blend-mode:overlay"/><path d="M508.94,192.55c6.14-3.07,12.27-6.14,14.57-12.28a14.16,14.16,0,0,0,1.22-4.47,43.35,43.35,0,0,0-52.63,20.65C484.38,193.23,496.66,198.33,508.94,192.55Z" fill="url(#Degradado_sin_nombre_150)"/><path d="M529.65,205.59c7.32-6.1,9.25-14.79,7.51-23a43.31,43.31,0,0,0-12.43-6.81,14.16,14.16,0,0,1-1.22,4.47c-2.3,6.14-8.43,9.21-14.57,12.28-12.28,5.78-24.56.68-36.84,3.9A43.34,43.34,0,0,0,467.61,210a11.26,11.26,0,0,1,4.5-1.34C492.06,207.12,512,220.17,529.65,205.59Z" fill="url(#Degradado_sin_nombre_150-2)"/><path d="M495.9,228.61c16.11,6.13,35.29,15.34,51.4,4.6a18.68,18.68,0,0,0,5.14-5.83,43.34,43.34,0,0,0-15.28-44.77c1.74,8.19-.19,16.88-7.51,23-17.64,14.58-37.59,1.53-57.54,3.07a11.26,11.26,0,0,0-4.5,1.34,43.73,43.73,0,0,0-.54,6.72,43.17,43.17,0,0,0,4.77,19.75C476.57,228.7,485.67,224.42,495.9,228.61Z" fill="url(#Degradado_sin_nombre_150-3)"/><path d="M495.9,249.32a11.42,11.42,0,0,0-5.71,5.73A43.36,43.36,0,0,0,532.6,254C520.17,253.86,508.38,244.91,495.9,249.32Z" fill="url(#Degradado_sin_nombre_150-4)"/><path d="M552.44,227.38a18.68,18.68,0,0,1-5.14,5.83c-16.11,10.74-35.29,1.53-51.4-4.6-10.23-4.19-19.33.09-24.06,7.86a43.52,43.52,0,0,0,18.35,18.58,11.42,11.42,0,0,1,5.71-5.73c12.48-4.41,24.27,4.54,36.7,4.64A43.45,43.45,0,0,0,552.44,227.38Z" fill="url(#Degradado_sin_nombre_150-5)"/><path d="M146.29,195.93a7.4,7.4,0,0,0,0-.83,7,7,0,0,0,0-.8,38.45,38.45,0,0,0-24.52-34.63,37.87,37.87,0,0,0-46.91,53c7.55,14.71,24.44,22.53,40.56,19.65C133.1,229.17,145.55,213.51,146.29,195.93Zm-28.48,23a25.84,25.84,0,0,1-29.94-8.58c-13.37-18.13,2.67-44.48,24.95-40.43a25.59,25.59,0,0,1,5,49Z" fill="url(#Degradado_sin_nombre_32-2)" style="mix-blend-mode:overlay"/><path d="M107.42,177.87c4.5-2.25,9-4.49,10.67-9a10.53,10.53,0,0,0,.9-3.27,31.73,31.73,0,0,0-38.53,15.12C89.45,178.37,98.44,182.1,107.42,177.87Z" fill="url(#Degradado_sin_nombre_56)"/><path d="M122.59,187.42c5.36-4.47,6.77-10.83,5.49-16.82a31.55,31.55,0,0,0-9.09-5,10.53,10.53,0,0,1-.9,3.27c-1.68,4.5-6.17,6.74-10.67,9-9,4.23-18,.5-27,2.86a31.79,31.79,0,0,0-3.29,9.91,8.42,8.42,0,0,1,3.3-1C95.07,188.54,109.67,198.09,122.59,187.42Z" fill="url(#Degradado_sin_nombre_56-2)"/><path d="M97.88,204.27c11.79,4.49,25.83,11.23,37.62,3.36a13.49,13.49,0,0,0,3.77-4.26,31.74,31.74,0,0,0-11.19-32.77c1.28,6-.13,12.35-5.49,16.82-12.92,10.67-27.52,1.12-42.12,2.24a8.42,8.42,0,0,0-3.3,1,32,32,0,0,0-.39,4.92A31.53,31.53,0,0,0,80.27,210,13.72,13.72,0,0,1,97.88,204.27Z" fill="url(#Degradado_sin_nombre_56-3)"/><path d="M97.88,219.43a8.36,8.36,0,0,0-4.18,4.19,31.71,31.71,0,0,0,31-.8C115.65,222.75,107,216.2,97.88,219.43Z" fill="url(#Degradado_sin_nombre_56-4)"/><path d="M139.27,203.37a13.49,13.49,0,0,1-3.77,4.26c-11.79,7.87-25.83,1.13-37.62-3.36A13.72,13.72,0,0,0,80.27,210a31.82,31.82,0,0,0,13.43,13.6,8.36,8.36,0,0,1,4.18-4.19c9.14-3.23,17.77,3.32,26.86,3.39A31.79,31.79,0,0,0,139.27,203.37Z" fill="url(#Degradado_sin_nombre_56-5)"/><path d="M189.29,221.68c-21.1,3.13-38.87,18.83-45.29,39-7.89,24.84,3,52.67,25.34,65.88,21.5,12.71,49.48,9.43,67.68-7.55,19.76-18.42,23.24-48.91,9.1-71.72A57.59,57.59,0,0,0,189.29,221.68Zm43.46,83.95a44.45,44.45,0,1,1,2.72-52.07C245.46,269.66,244.94,290.77,232.75,305.63Z" fill="url(#Degradado_sin_nombre_32-3)" style="mix-blend-mode:overlay"/><path d="M183.76,284.18c2.1-2.11,2.63-6.85-.53-9-7.91-5.27-12.65,5.8-19,9-4.22,1.58-10.54-2.64-6.86-7.38s11.6-5.8,14.76-11.59c.53-1.58.53-4.22,0-4.22-7.59-3-16,.05-23,5.05a50.8,50.8,0,0,0,2.46,31.66C163.6,295.52,176.08,294.41,183.76,284.18Z" fill="url(#Degradado_sin_nombre_73)"/><path d="M231.71,280c-10.54-3.16-21.6,12.12-32.67,7.91-3.16-1.06,1.05-6.33,3.69-7.91C217,272,231.58,267,246,261.35a50.3,50.3,0,0,0-5.09-10.45c-12,4.87-23.92,10.09-35.52,15.89-5.27,2.63-11.06,2.11-16.33.52-2.64-.52-2.64-5.27,0-6.85,5.79-3.69,9.48-7.9,11.59-13.17,1-2.11,1-5.27-1.05-6.33-3.17-1.05-6.85,0-10,1.06-13.3,3.32-24.92,11.26-37.38,15.21a51,51,0,0,0-3.06,8.81c7-5,15.46-8,23-5.05.53,0,.53,2.64,0,4.22C169,271,161.09,272.06,157.4,276.8s2.64,9,6.86,7.38c6.32-3.16,11.06-14.23,19-9,3.16,2.11,2.63,6.85.53,9-7.68,10.23-20.16,11.34-32.19,13.52a50.7,50.7,0,0,0,10.06,15.36,10.07,10.07,0,0,1,3.68-2c20.55-6.85,41.11-11.6,61.13-20C231.19,288.92,234.88,280.49,231.71,280Z" fill="url(#Degradado_sin_nombre_73-2)"/><path d="M220.65,313.69c-13-2.69-29.49,2.27-39,12.28a50.66,50.66,0,0,0,43.11-4.74C225.26,317.53,224.08,314.22,220.65,313.69Z" fill="url(#Degradado_sin_nombre_73-3)"/><path d="M246,261.35C231.58,267,217,272,202.73,280c-2.64,1.58-6.85,6.85-3.69,7.91,11.07,4.21,22.13-11.07,32.67-7.91,3.17.53-.52,9-5.27,11.07-20,8.43-40.58,13.18-61.13,20a10.07,10.07,0,0,0-3.68,2A50.63,50.63,0,0,0,181.68,326c9.48-10,25.94-15,39-12.28,3.43.53,4.61,3.84,4.14,7.54A50.61,50.61,0,0,0,246,261.35Z" fill="url(#Degradado_sin_nombre_73-4)"/><path d="M198.25,227.56a50.61,50.61,0,0,0-46.08,29.67c12.46-4,24.08-11.89,37.38-15.21,3.17-1.06,6.85-2.11,10-1.06,2.1,1.06,2.1,4.22,1.05,6.33-2.11,5.27-5.8,9.48-11.59,13.17-2.64,1.58-2.64,6.33,0,6.85,5.27,1.59,11.06,2.11,16.33-.52,11.6-5.8,23.49-11,35.52-15.89A50.57,50.57,0,0,0,198.25,227.56Z" fill="url(#Degradado_sin_nombre_73-5)"/><path d="M589.72,270.78c1-1.06,1.32-3.43-.26-4.48-4-2.64-6.33,2.9-9.49,4.48-2.11.79-5.27-1.32-3.43-3.69s5.8-2.9,7.38-5.8c.27-.79.27-2.11,0-2.11-3.79-1.48-8,0-11.52,2.53a25.4,25.4,0,0,0,1.23,15.83C579.64,276.45,585.88,275.89,589.72,270.78Z" fill="url(#Degradado_sin_nombre_84)"/><path d="M613.7,268.67c-5.27-1.58-10.8,6.06-16.34,3.95-1.58-.53.53-3.16,1.85-3.95,7.13-4,14.42-6.47,21.62-9.31a25,25,0,0,0-2.55-5.22c-6,2.43-12,5-17.76,7.94a10.93,10.93,0,0,1-8.16.26c-1.32-.26-1.32-2.63,0-3.42a13.8,13.8,0,0,0,5.79-6.59c.53-1.05.53-2.63-.52-3.16-1.59-.53-3.43,0-5,.53-6.65,1.66-12.46,5.63-18.69,7.6a25.54,25.54,0,0,0-1.53,4.41c3.52-2.5,7.73-4,11.52-2.53.27,0,.27,1.32,0,2.11-1.58,2.9-5.53,3.43-7.38,5.8s1.32,4.48,3.43,3.69c3.16-1.58,5.53-7.12,9.49-4.48,1.58,1.05,1.31,3.42.26,4.48-3.84,5.11-10.08,5.67-16.09,6.76a25.29,25.29,0,0,0,5,7.68,4.89,4.89,0,0,1,1.84-1c10.27-3.43,20.55-5.8,30.56-10C613.44,273.15,615.28,268.93,613.7,268.67Z" fill="url(#Degradado_sin_nombre_84-2)"/><path d="M608.17,285.53a22.38,22.38,0,0,0-19.49,6.14,25.34,25.34,0,0,0,21.56-2.37C610.47,287.45,609.88,285.8,608.17,285.53Z" fill="url(#Degradado_sin_nombre_84-3)"/><path d="M620.83,259.36c-7.2,2.84-14.49,5.32-21.62,9.31-1.32.79-3.43,3.42-1.85,3.95,5.54,2.11,11.07-5.53,16.34-3.95,1.58.26-.26,4.48-2.64,5.53-10,4.22-20.29,6.59-30.56,10a4.89,4.89,0,0,0-1.84,1,25.28,25.28,0,0,0,10,6.45,22.38,22.38,0,0,1,19.49-6.14c1.71.27,2.3,1.92,2.07,3.77a25.33,25.33,0,0,0,10.59-29.94Z" fill="url(#Degradado_sin_nombre_84-4)"/><path d="M597,242.47a25.3,25.3,0,0,0-23,14.83c6.23-2,12-5.94,18.69-7.6,1.58-.53,3.42-1.06,5-.53,1,.53,1,2.11.52,3.16a13.8,13.8,0,0,1-5.79,6.59c-1.32.79-1.32,3.16,0,3.42a10.93,10.93,0,0,0,8.16-.26c5.8-2.9,11.75-5.51,17.76-7.94A25.26,25.26,0,0,0,597,242.47Z" fill="url(#Degradado_sin_nombre_84-5)"/><path d="M422.46,329l-4.16.79c-6,.61-18.66.22-39.19-8.27-30.16-12.47-41.47,5.64-41.47,5.64s-11.31-18.11-41.46-5.64c-24.28,10-37.55,8.76-41.81,7.88l-1.54-.4L208,379l8,3.81,121.68-6.62,128.67,6.62,1-3.81Z" fill="#fbf3ff"/><path d="M208,379s20.17,7.62,66.28-11.44,63.4,8.63,63.4,8.63v17.1H208Z" fill="#b4b7b7"/><path d="M467.33,379s-20.17,7.62-66.29-11.44-63.4,8.63-63.4,8.63v17.1H467.33Z" fill="#b4b7b7"/><path d="M472.21,397.77H204a2.48,2.48,0,0,1-2.48-2.46h0a2.48,2.48,0,0,1,2.48-2.46H472.21a2.47,2.47,0,0,1,2.48,2.46h0A2.48,2.48,0,0,1,472.21,397.77Z" fill="#4e80e0"/><ellipse cx="337.64" cy="392.85" rx="10.09" ry="10.01" fill="#4e80e0"/><path d="M344.67,392.85a7,7,0,1,1-7-7A7,7,0,0,1,344.67,392.85Z" fill="#1c304f"/><path d="M336.43,379.77s-21.58-24.22-59.66-5.57-65.15,8.64-65.15,8.64,36,11.88,66-6.51C277.62,376.33,309.14,358.78,336.43,379.77Z" fill="#898ea0"/><path d="M329.24,382.84s-19.68-15.66-49.08-1.39-54.16,9-54.16,9,30.92,6.91,54.58-7S329.24,382.84,329.24,382.84Z" fill="#898ea0"/><path d="M325.85,386.62s-21.79-8.74-42.73,3.22C283.12,389.84,304.08,381.84,325.85,386.62Z" fill="#898ea0"/><path d="M340.08,379.77s21.58-24.22,59.65-5.57,65.16,8.64,65.16,8.64-36,11.88-66-6.51C398.89,376.33,367.37,358.78,340.08,379.77Z" fill="#898ea0"/><path d="M347.27,382.84s19.68-15.66,49.08-1.39,54.16,9,54.16,9-30.92,6.91-54.58-7S347.27,382.84,347.27,382.84Z" fill="#898ea0"/><path d="M350.66,386.62s21.79-8.74,42.73,3.22C393.39,389.84,372.42,381.84,350.66,386.62Z" fill="#898ea0"/><polygon points="337.64 21.75 337.12 21.75 163.81 21.75 207.96 379.03 337.64 341.74 467.33 379.03 511.96 21.75 337.64 21.75" fill="url(#Degradado_sin_nombre_32-4)" style="mix-blend-mode:overlay"/><path d="M529.91,357.64a26,26,0,0,0,10.68,2.1q1,0,2.07-.12a25.79,25.79,0,0,0,13.6-5.5l.06-.05C547.08,352,535.58,349.93,529.91,357.64Z" fill="url(#Degradado_sin_nombre_5-9)"/><path d="M563.61,334.6c-10.85,8.62-23.9,2.83-36.22,1.85-4.74,0-9.26,1.75-12,5.15a25.79,25.79,0,0,0,2,4.73,27.09,27.09,0,0,0,2.18,3.32c.08.09.14.19.22.28a25.69,25.69,0,0,0,10.11,7.71c5.67-7.71,17.17-5.65,26.41-3.57A26,26,0,0,0,566,332,6.77,6.77,0,0,1,563.61,334.6Z" fill="url(#Degradado_sin_nombre_5-10)"/><path d="M560.2,317.36c-.45-.54-.91-1.06-1.4-1.56-9.8,7.26-23.34,3.94-34.56,7a23.06,23.06,0,0,0-9.54,5.85,26.23,26.23,0,0,0-.41,2.8,25.83,25.83,0,0,0,1.09,10.16c2.75-3.4,7.27-5.11,12-5.15,12.32,1,25.37,6.77,36.22-1.85A6.77,6.77,0,0,0,566,332a1.21,1.21,0,0,0,0-.19,25.74,25.74,0,0,0-5.55-14.1Z" fill="url(#Degradado_sin_nombre_5-11)"/><path d="M524.24,322.79c11.22-3.05,24.76.27,34.56-7a25.93,25.93,0,0,0-30.78-5,26.34,26.34,0,0,0-4,2.63,25.85,25.85,0,0,0-9.28,15.17A23.06,23.06,0,0,1,524.24,322.79Z" fill="url(#Degradado_sin_nombre_5-12)"/><path d="M529.86,330.72a5.29,5.29,0,1,1-7.43-.85A5.3,5.3,0,0,1,529.86,330.72Z" fill="url(#Degradado_sin_nombre_5-13)"/><path d="M527.73,331.43a3.8,3.8,0,1,1-5.34-.62A3.81,3.81,0,0,1,527.73,331.43Z" fill="#202f2f"/><path d="M534.34,318.86c-2.83.72-5.59-.53-6.17-2.8s1.25-4.69,4.08-5.4,5.59.53,6.17,2.8S537.17,318.14,534.34,318.86Z" fill="url(#Degradado_sin_nombre_5-14)"/><path d="M533.7,316.9c-2,.51-4-.39-4.44-2s.9-3.37,2.94-3.88,4,.38,4.43,2S535.73,316.38,533.7,316.9Z" fill="#202f2f"/><path d="M550.7,342.13A10.36,10.36,0,1,1,561,331.76,10.36,10.36,0,0,1,550.7,342.13Z" fill="url(#Degradado_sin_nombre_5-15)"/><path d="M552.21,338a7.45,7.45,0,1,1,7.44-7.46A7.46,7.46,0,0,1,552.21,338Z" fill="#202f2f"/><path d="M549.21,360.13c-5.51,1.55-10.67.33-11.53-2.72s2.9-6.79,8.41-8.35,10.67-.33,11.53,2.72S554.71,358.57,549.21,360.13Z" fill="url(#Degradado_sin_nombre_5-16)"/><path d="M549,359.5c-4,1.11-7.67.24-8.29-2s2.09-4.88,6-6,7.67-.24,8.29,2S553,358.38,549,359.5Z" fill="#202f2f"/><path d="M555.24,315.1c6.88,8.67,4.24,22.24-5.91,30.3s-24,7.56-30.84-1.12-4.25-22.24,5.9-30.3S548.35,306.43,555.24,315.1Z" fill="url(#Degradado_sin_nombre_4-4)" style="mix-blend-mode:overlay"/><path d="M538.14,346.63a5.43,5.43,0,1,1-7.63-.88A5.42,5.42,0,0,1,538.14,346.63Z" fill="url(#Degradado_sin_nombre_4-5)"/><path d="M549.84,344.37a2.75,2.75,0,1,0,.45-3.87A2.76,2.76,0,0,0,549.84,344.37Z" fill="url(#Degradado_sin_nombre_4-6)"/><path d="M604.38,115.67a6.46,6.46,0,0,0-.91-1.22c-6.33-8-17.1-11.16-26.54-6.21a21.09,21.09,0,0,0-8.24,29.06c5.89,9.95,19.51,13.37,29.27,6.93a21.12,21.12,0,0,0,7.15-27.2A6.45,6.45,0,0,0,604.38,115.67Zm-25,15.4c-5.56-9.31,8.32-17.92,14.4-9.18C599.47,131.66,585.15,140.82,579.33,131.07Z" fill="url(#Degradado_sin_nombre_32-5)" style="mix-blend-mode:overlay"/><path d="M582.53,128.91a1.77,1.77,0,0,0-.15-2.6c-2.3-1.54-3.68,1.68-5.52,2.6-1.23.46-3.07-.77-2-2.14s3.37-1.69,4.29-3.38c.15-.46.15-1.22,0-1.22-2.21-.87-4.66,0-6.7,1.47a14.68,14.68,0,0,0,.71,9.2C576.67,132.21,580.3,131.89,582.53,128.91Z" fill="url(#Degradado_sin_nombre_92)"/><path d="M596.48,127.69c-3.07-.92-6.29,3.52-9.51,2.29-.92-.3.31-1.84,1.08-2.29a99.08,99.08,0,0,1,12.57-5.42,14.93,14.93,0,0,0-1.48-3c-3.5,1.41-6.95,2.93-10.33,4.61a6.36,6.36,0,0,1-4.75.16c-.76-.16-.76-1.54,0-2a7.93,7.93,0,0,0,3.37-3.83c.31-.61.31-1.53-.3-1.84a4.81,4.81,0,0,0-2.91.31c-3.87,1-7.25,3.28-10.87,4.43a13.84,13.84,0,0,0-.89,2.56c2-1.46,4.49-2.34,6.7-1.47.15,0,.15.76,0,1.22-.92,1.69-3.22,2-4.29,3.38s.76,2.6,2,2.14c1.84-.92,3.22-4.14,5.52-2.6a1.77,1.77,0,0,1,.15,2.6c-2.23,3-5.86,3.3-9.36,3.93a14.74,14.74,0,0,0,2.93,4.47,2.81,2.81,0,0,1,1.07-.58c6-2,12-3.37,17.77-5.83C596.32,130.29,597.39,127.84,596.48,127.69Z" fill="url(#Degradado_sin_nombre_92-2)"/><path d="M593.26,137.49a13,13,0,0,0-11.33,3.57,14.76,14.76,0,0,0,4.81.81,14.6,14.6,0,0,0,7.72-2.19C594.6,138.61,594.25,137.65,593.26,137.49Z" fill="url(#Degradado_sin_nombre_92-3)"/><path d="M600.62,122.27a99.08,99.08,0,0,0-12.57,5.42c-.77.45-2,2-1.08,2.29,3.22,1.23,6.44-3.21,9.51-2.29.91.15-.16,2.6-1.54,3.21-5.82,2.46-11.8,3.83-17.77,5.83a2.81,2.81,0,0,0-1.07.58,14.62,14.62,0,0,0,5.83,3.75,13,13,0,0,1,11.33-3.57c1,.16,1.34,1.12,1.2,2.19a14.73,14.73,0,0,0,6.16-17.41Z" fill="url(#Degradado_sin_nombre_92-4)"/><path d="M586.74,112.45a14.7,14.7,0,0,0-13.39,8.63c3.62-1.15,7-3.46,10.87-4.43a4.81,4.81,0,0,1,2.91-.31c.61.31.61,1.23.3,1.84a7.93,7.93,0,0,1-3.37,3.83c-.76.46-.76,1.84,0,2a6.36,6.36,0,0,0,4.75-.16c3.38-1.68,6.83-3.2,10.33-4.61A14.69,14.69,0,0,0,586.74,112.45Z" fill="url(#Degradado_sin_nombre_92-5)"/><path d="M86.45,354.35c1.06-1.06,1.32-3.43-.26-4.48-4-2.64-6.33,2.9-9.49,4.48-2.1.79-5.27-1.32-3.42-3.69s5.79-2.9,7.38-5.8c.26-.79.26-2.11,0-2.11-3.8-1.48-8,0-11.53,2.53a25.7,25.7,0,0,0-.73,6.05,25.26,25.26,0,0,0,2,9.78C76.38,360,82.62,359.46,86.45,354.35Z" fill="url(#Degradado_sin_nombre_84-6)"/><path d="M110.43,352.24c-5.27-1.58-10.8,6.06-16.33,3.95-1.59-.53.52-3.16,1.84-3.95,7.13-4,14.42-6.47,21.62-9.31a25,25,0,0,0-2.55-5.22c-6,2.43-12,5-17.75,7.94a10.91,10.91,0,0,1-8.17.26c-1.32-.26-1.32-2.63,0-3.42a13.82,13.82,0,0,0,5.8-6.59c.52-1,.52-2.63-.53-3.16-1.58-.53-3.43,0-5,.53-6.65,1.66-12.46,5.63-18.69,7.6a25.54,25.54,0,0,0-1.53,4.41c3.52-2.5,7.73-4,11.53-2.53.26,0,.26,1.32,0,2.11-1.59,2.9-5.54,3.43-7.38,5.8s1.32,4.48,3.42,3.69c3.16-1.58,5.54-7.12,9.49-4.48,1.58,1.05,1.32,3.42.26,4.48-3.83,5.11-10.07,5.67-16.09,6.76a25.48,25.48,0,0,0,5,7.68,5,5,0,0,1,1.84-1c10.28-3.43,20.55-5.8,30.57-10C110.17,356.72,112,352.5,110.43,352.24Z" fill="url(#Degradado_sin_nombre_84-7)"/><path d="M104.9,369.1a22.36,22.36,0,0,0-19.48,6.14A25.32,25.32,0,0,0,107,372.87C107.21,371,106.61,369.37,104.9,369.1Z" fill="url(#Degradado_sin_nombre_84-8)"/><path d="M117.56,342.93c-7.2,2.84-14.49,5.32-21.62,9.31-1.32.79-3.43,3.42-1.84,3.95,5.53,2.11,11.06-5.53,16.33-3.95,1.58.26-.26,4.48-2.63,5.53-10,4.22-20.29,6.59-30.57,10a5,5,0,0,0-1.84,1,25.32,25.32,0,0,0,10,6.45,22.36,22.36,0,0,1,19.48-6.14c1.71.27,2.31,1.92,2.07,3.77a25.33,25.33,0,0,0,10.59-29.94Z" fill="url(#Degradado_sin_nombre_84-9)"/><path d="M93.7,326a25.3,25.3,0,0,0-23,14.83c6.23-2,12-5.94,18.69-7.6,1.58-.53,3.43-1.06,5-.53,1,.53,1,2.11.53,3.16a13.82,13.82,0,0,1-5.8,6.59c-1.32.79-1.32,3.16,0,3.42a10.91,10.91,0,0,0,8.17-.26c5.8-2.9,11.74-5.51,17.75-7.94A25.26,25.26,0,0,0,93.7,326Z" fill="url(#Degradado_sin_nombre_84-10)"/></g></g></g></svg>